Coordinates
version=1
nRows=11
nColumns=40
inDegrees=yes

Units are S.I. units (second, meters, Newtons, ...)
If the header above contains a line with 'inDegrees', this indicates whether rotational values are in degrees (yes) or radians (no).

endheader
time	pelvis_tilt	pelvis_list	pelvis_rotation	pelvis_tx	pelvis_ty	pelvis_tz	hip_flexion_r	hip_adduction_r	hip_rotation_r	knee_angle_r	knee_angle_r_beta	ankle_angle_r	subtalar_angle_r	mtp_angle_r	hip_flexion_l	hip_adduction_l	hip_rotation_l	knee_angle_l	knee_angle_l_beta	ankle_angle_l	subtalar_angle_l	mtp_angle_l	lumbar_extension	lumbar_bending	lumbar_rotation	arm_flex_r	arm_add_r	arm_rot_r	elbow_flex_r	pro_sup_r	wrist_flex_r	wrist_dev_r	arm_flex_l	arm_add_l	arm_rot_l	elbow_flex_l	pro_sup_l	wrist_flex_l	wrist_dev_l
      3.47500000	    -12.86912632	      8.51479550	     -8.03555692	     -0.31309597	      0.92695325	     -1.05591968	     22.37943879	    -12.06463794	     -0.73585966	    111.84102810	      1.95199418	    -16.46996679	      0.00000000	      0.00000000	     47.58733219	      5.37807765	    -17.79464125	     56.79701596	      0.99129493	     21.66663298	      0.00000000	      0.00000000	     -4.33268597	    -13.02577511	      4.76286310	     89.92109694	    -12.94889414	     26.18105288	     36.67917356	     86.37390973	      0.00000000	      0.00000000	     89.93604064	    -19.50980946	     27.15692009	     39.20784671	     85.67609094	      0.00000000	      0.00000000
      3.48000000	    -12.98202322	      8.58736393	     -7.94815901	     -0.31332720	      0.92605948	     -1.05594947	     22.33797298	    -12.09598341	     -0.87813776	    111.76589916	      1.95068293	    -16.48871577	      0.00000000	      0.00000000	     47.79226485	      5.35164347	    -17.93739666	     56.95019239	      0.99396837	     21.68944336	      0.00000000	      0.00000000	     -4.32427018	    -13.14994061	      4.64673586	     89.92136933	    -12.93120832	     26.03905096	     36.66533333	     86.35885746	      0.00000000	      0.00000000	     89.93673760	    -19.50292572	     27.11688576	     39.34535895	     85.79169724	      0.00000000	      0.00000000
      3.48500000	    -13.01234201	      8.77304110	     -7.94763666	     -0.31348381	      0.92538823	     -1.05583948	     22.24339736	    -12.25038977	     -0.87300436	    111.69046210	      1.94936631	    -16.54236739	      0.00000000	      0.00000000	     47.88192606	      5.36091350	    -18.25341182	     57.03087151	      0.99537648	     21.66584276	      0.00000000	      0.00000000	     -4.40634265	    -13.41617614	      4.50430351	     89.92188909	    -12.83034288	     25.82606858	     36.70312555	     86.37636599	      0.00000000	      0.00000000	     89.93734209	    -19.54950376	     26.88324834	     39.51754515	     85.71378402	      0.00000000	      0.00000000
      3.49000000	    -13.17441013	      8.85153060	     -7.86279502	     -0.31381795	      0.92449915	     -1.05589419	     22.29263293	    -12.29693494	     -0.97989228	    111.62957130	      1.94830356	    -16.61056888	      0.00000000	      0.00000000	     48.11793400	      5.35968246	    -18.37076413	     57.11733708	      0.99688559	     21.68155908	      0.00000000	      0.00000000	     -4.33985616	    -13.55202276	      4.42400230	     89.92213227	    -12.84694905	     25.68001294	     36.65656494	     86.35328171	      0.00000000	      0.00000000	     89.93802887	    -19.50582172	     26.91086794	     39.65299783	     85.74136882	      0.00000000	      0.00000000
      3.49500000	    -13.32229523	      8.96193659	     -7.85476615	     -0.31393190	      0.92354788	     -1.05573872	     22.32591697	    -12.32572243	     -0.99578139	    111.57244260	      1.94730648	    -16.65689182	      0.00000000	      0.00000000	     48.36261799	      5.29718766	    -18.57588893	     57.28751831	      0.99985581	     21.69242690	      0.00000000	      0.00000000	     -4.27408508	    -13.71885950	      4.32440932	     89.92215320	    -12.75553072	     25.54668838	     36.65347996	     86.30322568	      0.00000000	      0.00000000	     89.93841959	    -19.54617278	     26.71247723	     39.80318502	     85.79091377	      0.00000000	      0.00000000
      3.50000000	    -13.44087365	      9.06914798	     -7.76307019	     -0.31426630	      0.92276208	     -1.05582861	     22.31764854	    -12.43462848	     -1.10144207	    111.51296761	      1.94626844	    -16.76638687	      0.00000000	      0.00000000	     48.54502227	      5.29676404	    -18.77883742	     57.36149473	      1.00114695	     21.68291105	      0.00000000	      0.00000000	     -4.27906986	    -13.88577695	      4.16091001	     89.92240037	    -12.70813255	     25.41296788	     36.66409229	     86.25812390	      0.00000000	      0.00000000	     89.93904100	    -19.54963692	     26.62051683	     39.94141488	     85.82945465	      0.00000000	      0.00000000
      3.50500000	    -13.48351811	      9.27489015	     -7.79421089	     -0.31418639	      0.92179559	     -1.05580286	     22.25368567	    -12.65378769	     -1.06461137	    111.48282070	      1.94574228	    -16.82230637	      0.00000000	      0.00000000	     48.66278548	      5.31829079	    -19.09865564	     57.50891991	      1.00372000	     21.78913872	      0.00000000	      0.00000000	     -4.27138666	    -14.16419779	      4.13548758	     89.92272539	    -12.69266838	     25.30841554	     36.63393199	     86.25776005	      0.00000000	      0.00000000	     89.93954246	    -19.52182802	     26.51364366	     40.07110451	     85.73630984	      0.00000000	      0.00000000
      3.51000000	    -13.60638631	      9.39161503	     -7.75757735	     -0.31444646	      0.92104977	     -1.05578679	     22.25448743	    -12.73503435	     -1.09901506	    111.41897005	      1.94462788	    -16.82391529	      0.00000000	      0.00000000	     48.84590165	      5.30602401	    -19.30481970	     57.58549751	      1.00505653	     21.79665848	      0.00000000	      0.00000000	     -4.26032111	    -14.35036658	      4.01747121	     89.92295431	    -12.64304963	     25.12029198	     36.65246827	     86.29047901	      0.00000000	      0.00000000	     89.94004515	    -19.51005342	     26.34720379	     40.20579673	     85.79659678	      0.00000000	      0.00000000
      3.51500000	    -13.65276253	      9.47886615	     -7.70516351	     -0.31459526	      0.92053073	     -1.05573660	     22.15363364	    -12.81528354	     -1.18989306	    111.32882911	      1.94305462	    -16.93929475	      0.00000000	      0.00000000	     48.93138462	      5.27968548	    -19.50963208	     57.68464521	      1.00678699	     22.00845647	      0.00000000	      0.00000000	     -4.33796209	    -14.51748067	      3.91770877	     89.92307211	    -12.65956933	     24.98756367	     36.67112679	     86.28796197	      0.00000000	      0.00000000	     89.94055721	    -19.46739479	     26.23951456	     40.35191460	     85.83562775	      0.00000000	      0.00000000
      3.52000000	    -13.84418248	      9.53749957	     -7.60606745	     -0.31496634	      0.91973538	     -1.05577004	     22.24793956	    -12.85234430	     -1.27036105	    111.28414737	      1.94227478	    -17.04639355	      0.00000000	      0.00000000	     49.21717839	      5.25000303	    -19.59678368	     57.82098996	      1.00916665	     21.97746308	      0.00000000	      0.00000000	     -4.27338955	    -14.63080400	      3.77604762	     89.92336356	    -12.63699729	     24.81067352	     36.66830669	     86.27063952	      0.00000000	      0.00000000	     89.94086752	    -19.43194142	     26.09859019	     40.48076158	     85.85794788	      0.00000000	      0.00000000
      3.52500000	    -13.91567363	      9.68938295	     -7.62138532	     -0.31497085	      0.91893794	     -1.05566930	     22.20955086	    -13.00602726	     -1.23402619	    111.23008394	      1.94133119	    -17.08096808	      0.00000000	      0.00000000	     49.33330777	      5.19760347	    -19.93999520	     57.91842908	      1.01086729	     21.81375128	      0.00000000	      0.00000000	     -4.27291033	    -14.86585210	      3.68081044	     89.92337615	    -12.56429460	     24.68748117	     36.64558054	     86.26994707	      0.00000000	      0.00000000	     89.94136719	    -19.45036384	     26.00573535	     40.62701952	     85.85444630	      0.00000000	      0.00000000
